<svg width="161" height="176" viewBox="0 0 161 176" fill="none" xmlns="http://www.w3.org/2000/svg">
<path d="M157.917 23.5C41.9175 51.1 58.5842 134.333 81.4175 172.5C89.2497 168.5 110.714 157.9 133.914 147.5C157.114 137.1 159.583 103.5 157.917 88V23.5Z" fill="#C87651" stroke="black" stroke-width="5"/>
<path d="M3.41845 23.5C119.418 51.1 102.752 134.333 79.9184 172.5C72.0863 168.5 50.6219 157.9 27.4219 147.5C4.22188 137.1 1.75292 103.5 3.41845 88V23.5Z" fill="#C87651" stroke="black" stroke-width="5"/>
<path d="M81.5113 67C69.5113 82 52.7113 123.5 81.5113 169.5" stroke="black" stroke-width="5"/>
<path d="M81.5 50C66.0333 29.9545 36.3889 18.125 23.5 14.7159V5C58.7957 14 76.8732 36.0227 81.5 45.9091V50Z" fill="#C87651" stroke="#C87651" stroke-linejoin="round"/>
<path d="M82.0156 50C96.949 29.9545 125.571 18.125 138.016 14.7159V5C103.937 14 86.4829 36.0227 82.0156 45.9091V50Z" fill="#C87651" stroke="#C87651" stroke-linejoin="round"/>
<path d="M21 15.5L21.0078 3C34.8411 5 66.4078 15.5 82.0078 41.5C90.3411 29.8333 113.808 5.8 141.008 3V15" stroke="black" stroke-width="5"/>
</svg>
